<svg viewBox="0 0 39 37" fill="none" xmlns="http://www.w3.org/2000/svg">
<path d="M6 21C14.5 19.5 27 19.5 33 21L35.5 8.5L28 20L27.7 5.9L22.5 19.5L19.5 5L16.5 19.5L11.3 5.9L11 20L3.5 8.5L6 21Z" fill="black" stroke="black" stroke-width="1.5" stroke-linejoin="round"/>
<path d="M6 21C6 23 7.5 23 8.5 25C9.5 26.5 9.5 26 9 28.5C7.5 29.5 8 31 8 31C6.5 32.5 8 33.5 8 33.5C14.5 34.5 24.5 34.5 31 33.5C31 33.5 32.5 32.5 31 31C31 31 31.5 29.5 30 28.5C29.5 26 29.5 26.5 30.5 25C31.5 23 33 23 33 21C24.5 19.5 14.5 19.5 6 21Z" fill="black" stroke="black" stroke-width="1.5" stroke-linecap="round" stroke-linejoin="round"/>
<path d="M8.5 25C12 24 27 24 30.5 25Z" fill="black"/>
<path d="M8.5 25C12 24 27 24 30.5 25" stroke="black" stroke-width="1.5" stroke-linecap="round" stroke-linejoin="round"/>
<path d="M9 28.5C15 27.5 24 27.5 30 28.5Z" fill="black"/>
<path d="M9 28.5C15 27.5 24 27.5 30 28.5" stroke="black" stroke-width="1.5" stroke-linecap="round" stroke-linejoin="round"/>
<path d="M3 9C4.10457 9 5 8.10457 5 7C5 5.89543 4.10457 5 3 5C1.89543 5 1 5.89543 1 7C1 8.10457 1.89543 9 3 9Z" fill="black" stroke="black" stroke-width="1.5" stroke-linecap="round" stroke-linejoin="round"/>
<path d="M11 6C12.1046 6 13 5.10457 13 4C13 2.89543 12.1046 2 11 2C9.89543 2 9 2.89543 9 4C9 5.10457 9.89543 6 11 6Z" fill="black" stroke="black" stroke-width="1.5" stroke-linecap="round" stroke-linejoin="round"/>
<path d="M19.5 5C20.6046 5 21.5 4.10457 21.5 3C21.5 1.89543 20.6046 1 19.5 1C18.3954 1 17.5 1.89543 17.5 3C17.5 4.10457 18.3954 5 19.5 5Z" fill="black" stroke="black" stroke-width="1.5" stroke-linecap="round" stroke-linejoin="round"/>
<path d="M28 6C29.1046 6 30 5.10457 30 4C30 2.89543 29.1046 2 28 2C26.8954 2 26 2.89543 26 4C26 5.10457 26.8954 6 28 6Z" fill="black" stroke="black" stroke-width="1.5" stroke-linecap="round" stroke-linejoin="round"/>
<path d="M36 9C37.1046 9 38 8.10457 38 7C38 5.89543 37.1046 5 36 5C34.8954 5 34 5.89543 34 7C34 8.10457 34.8954 9 36 9Z" fill="black" stroke="black" stroke-width="1.5" stroke-linecap="round" stroke-linejoin="round"/>
<path d="M8 33.5C15.4478 36.091 23.5522 36.091 31 33.5" stroke="black" stroke-width="1.5" stroke-linejoin="round"/>
<path d="M8 24C15.4478 21.409 23.5522 21.409 31 24" stroke="white" stroke-width="1.5" stroke-linecap="round" stroke-linejoin="round"/>
<path d="M9.5 26.5H29.5" stroke="white" stroke-width="1.5" stroke-linecap="round" stroke-linejoin="round"/>
<path d="M8.5 29.5C15.6427 31.8647 23.3573 31.8647 30.5 29.5" stroke="white" stroke-width="1.5" stroke-linecap="round" stroke-linejoin="round"/>
<path d="M7.5 32.5C15.25 35.3286 23.75 35.3286 31.5 32.5" stroke="white" stroke-width="1.5" stroke-linecap="round" stroke-linejoin="round"/>
</svg>
