<svg width="60" height="60" viewBox="0 0 35 36" fill="none" xmlns="http://www.w3.org/2000/svg">
<path d="M17.6122 6.63V1" stroke="black" stroke-width="1.5" stroke-linecap="round"/>
<path fill-rule="evenodd" clip-rule="evenodd" d="M17.6122 20C17.6122 20 22.1122 12.5 20.6122 9.5C20.6122 9.5 19.6122 7 17.6122 7C15.6122 7 14.6122 9.5 14.6122 9.5C13.1122 12.5 17.6122 20 17.6122 20Z" fill="black" stroke="black" stroke-width="1.5"/>
<path fill-rule="evenodd" clip-rule="evenodd" d="M7.61225 32C13.1122 35.5 22.1122 35.5 27.6122 32V25C27.6122 25 36.6122 20.5 33.6122 14.5C29.6122 8 20.1122 11 17.6122 18.5C15.1122 11 5.61224 8 1.61224 14.5C-1.38776 20.5 7.61225 25 7.61225 25V32Z" fill="black"/>
<path d="M17.6122 18.5C20.1122 11 29.6122 8 33.6122 14.5C36.6122 20.5 27.6122 25 27.6122 25V32C22.1122 35.5 13.1122 35.5 7.61225 32V25C7.61225 25 -1.38776 20.5 1.61224 14.5C5.61224 8 15.1122 11 17.6122 18.5ZM17.6122 18.5V22" stroke="black" stroke-width="1.5" stroke-linecap="round" stroke-linejoin="round"/>
<path d="M15.1122 3H20.1122" stroke="black" stroke-width="1.5" stroke-linecap="round"/>
<path d="M27.1122 24.5C27.1122 24.5 35.6122 20.5 33.1422 14.85C29.2622 9 20.1122 13 17.6122 19.5M17.6122 19.5V21.6M17.6122 19.5C15.1122 13 5.96224 9 2.08224 14.85C-0.387758 20.5 8.11224 24.5 8.11224 24.5" stroke="white" stroke-width="1.5" stroke-linecap="round" stroke-linejoin="round"/>
<path d="M7.61224 25C13.1122 22 22.1122 22 27.6122 25M7.61224 28.5C13.1122 25.5 22.1122 25.5 27.6122 28.5M7.61224 32C13.1122 29 22.1122 29 27.6122 32" stroke="white" stroke-width="1.5" stroke-linecap="round" stroke-linejoin="round"/>
</svg>
