<svg width="164" height="197" viewBox="0 0 164 197" fill="none" xmlns="http://www.w3.org/2000/svg">
<path d="M157.296 114.888V129.249C157.296 166.502 123.557 196.746 82 196.746C40.4439 196.746 6.70441 166.502 6.70441 129.249V114.888H157.296Z" fill="#FFD3AE"/>
<path d="M157.296 114.888V67.497C157.296 30.245 123.557 0 82 0C40.4439 0 6.70441 30.245 6.70441 67.497V114.888H157.296Z" fill="#9AA5B2"/>
<path d="M157.296 62.286H6.70441V68.873H157.296V62.286Z" fill="#333333"/>
<path d="M7.42503 88.61H156.575C160.673 88.61 164 91.592 164 95.266V115.233C164 118.907 160.673 121.889 156.575 121.889H7.42503C3.32765 121.889 0 118.907 0 115.233V95.266C0 91.592 3.32765 88.61 7.42503 88.61Z" fill="#9AA5B2"/>
<path d="M29.5172 96.793H134.483C139.689 96.793 143.917 100.582 143.917 105.25C143.917 109.917 139.689 113.706 134.483 113.706H29.5172C24.311 113.706 20.0842 109.917 20.0842 105.25C20.0842 100.582 24.311 96.793 29.5172 96.793Z" fill="#333333"/>
<path d="M68.3067 148.725H95.6932C97.8763 148.725 99.6489 150.314 99.6489 152.271C99.6489 154.228 97.8763 155.817 95.6932 155.817H68.3067C66.1236 155.817 64.351 154.228 64.351 152.271C64.351 150.314 66.1236 148.725 68.3067 148.725Z" fill="#333333"/>
<path d="M118.686 188.186C107.831 193.64 95.3173 196.746 82 196.746C68.6827 196.746 56.1685 193.64 45.3143 188.186C52.4638 176.625 66.2218 168.807 82 168.807C97.7782 168.807 111.536 176.625 118.686 188.186Z" fill="#333333"/>
</svg>
