<svg  viewBox="0 0 164 180" fill="none" xmlns="http://www.w3.org/2000/svg">
<path d="M3.281 123H160.719C162.53 123 164 124.435 164 126.203C164 127.971 162.53 129.406 160.719 129.406H3.281C1.47 129.406 0 127.971 0 126.203C0 124.435 1.47 123 3.281 123Z" fill="#200112"/>
<path d="M154.988 151.187C155.016 150.337 155.031 149.483 155.031 148.625V89.687C155.031 50.088 122.881 17.937 83.281 17.937C43.681 17.937 11.531 50.088 11.531 89.687V148.625C11.531 149.483 11.546 150.337 11.575 151.187H154.988Z" fill="#7B8485"/>
<path d="M155.031 141.523H11.531V179.375H155.031V141.523Z" fill="#6F7075"/>
<path d="M11.532 119.156H8.96899V179.375H11.532V119.156Z" fill="#6F7075"/>
<path d="M157.594 119.156H155.031V179.375H157.594V119.156Z" fill="#6F7075"/>
<path d="M79.438 42.281C79.438 18.946 81.16 0 83.281 0C85.403 0 87.125 18.946 87.125 42.281C87.125 65.617 85.403 84.562 83.281 84.562C81.16 84.562 79.438 65.617 79.438 42.281Z" fill="#565654"/>
<g opacity="0.59">
<path d="M30.109 98.016C30.109 89.176 37.286 82 46.125 82C54.964 82 62.141 89.176 62.141 98.016C62.141 106.855 54.964 114.031 46.125 114.031C37.286 114.031 30.109 106.855 30.109 98.016Z" fill="#FDF444"/>
</g>
<g opacity="0.59">
<path d="M33.766 98.016C33.766 91.194 39.304 85.656 46.125 85.656C52.946 85.656 58.484 91.194 58.484 98.016C58.484 104.837 52.946 110.375 46.125 110.375C39.304 110.375 33.766 104.837 33.766 98.016Z" fill="#FDF444"/>
</g>
<g opacity="0.59">
<path d="M38.25 98.016C38.25 93.669 41.779 90.141 46.125 90.141C50.471 90.141 54 93.669 54 98.016C54 102.362 50.471 105.891 46.125 105.891C41.779 105.891 38.25 102.362 38.25 98.016Z" fill="#FDF444"/>
</g>
<g opacity="0.59">
<path d="M104 98.016C104 89.176 111.176 82 120.016 82C128.855 82 136.031 89.176 136.031 98.016C136.031 106.855 128.855 114.031 120.016 114.031C111.176 114.031 104 106.855 104 98.016Z" fill="#FDF444"/>
</g>
<g opacity="0.59">
<path d="M107.656 98.016C107.656 91.194 113.194 85.656 120.016 85.656C126.837 85.656 132.375 91.194 132.375 98.016C132.375 104.837 126.837 110.375 120.016 110.375C113.194 110.375 107.656 104.837 107.656 98.016Z" fill="#FDF444"/>
</g>
<g opacity="0.59">
<path d="M112.141 98.016C112.141 93.669 115.669 90.141 120.016 90.141C124.362 90.141 127.891 93.669 127.891 98.016C127.891 102.362 124.362 105.891 120.016 105.891C115.669 105.891 112.141 102.362 112.141 98.016Z" fill="#FDF444"/>
</g>
</svg>
